<?xml version="1.0" encoding="UTF-8"?>
<svg width="598px" height="196px" viewBox="0 0 598 196" version="1.1" xmlns="http://www.w3.org/2000/svg" xmlns:xlink="http://www.w3.org/1999/xlink">
    <!-- Generator: Sketch 62 (91390) - https://sketch.com -->
    <title>Group 3</title>
    <desc>Created with Sketch.</desc>
    <defs>
        <polygon id="path-1" points="0.0004 0.000246564835 597.4954 0.000246564835 597.4954 195.235 0.0004 195.235"></polygon>
    </defs>
    <g id="Page-1" stroke="none" stroke-width="1" fill="none" fill-rule="evenodd">
        <g id="Group-3">
            <mask id="mask-2" fill="white">
                <use xlink:href="#path-1"></use>
            </mask>
            <g id="Clip-2"></g>
            <path d="M2.2574,159.2378 C6.9284,170.5268 11.6634,181.5808 15.3224,192.8788 C15.6194,193.7958 15.8484,194.3988 16.0224,194.7648 C16.0254,194.8408 16.0274,194.9068 16.0304,194.9888 L16.1384,194.9878 C16.3504,195.3568 16.4544,195.2768 16.4904,194.9878 L589.1244,192.8588 C594.5824,170.2758 597.4954,146.6978 597.4954,122.4378 C597.4954,97.9698 594.5324,74.1968 588.9844,51.4378 C576.2534,45.5008 547.7084,43.0668 544.6284,45.7378 C541.1254,48.7758 510.7544,67.1198 487.3614,47.4598 C475.3894,37.3978 442.8574,65.3408 442.8574,65.3408 C442.8574,65.3408 400.0334,68.5838 380.1834,75.4188 C362.0864,81.6498 359.8014,78.2098 336.4474,55.7648 C313.0934,33.3198 306.7644,29.0528 292.7514,40.0258 C278.7394,50.9978 228.3824,41.2418 208.5314,24.1138 C197.6474,14.7218 188.6814,19.2168 178.1724,24.1138 C167.6624,29.0098 166.4944,24.2798 166.4944,24.2798 C166.4944,24.2798 153.0664,19.9758 133.7994,8.5838 C115.6034,-2.1752 105.1914,0.2298 105.1914,0.2298 C105.1914,0.2298 81.2534,13.1408 68.4084,17.2218 C55.5644,21.3028 54.6624,35.3418 38.3144,32.3028 C32.2704,31.1798 22.5934,32.9418 12.6764,36.1368 C4.4444,63.4628 0.0004,92.4288 0.0004,122.4378 C0.0004,134.8988 0.7764,147.1768 2.2574,159.2378" id="Fill-1" fill="#298565" mask="url(#mask-2)"></path>
        </g>
    </g>
</svg>