<?xml version="1.0" encoding="UTF-8"?>
<svg width="427px" height="145px" viewBox="0 0 427 145" version="1.1" xmlns="http://www.w3.org/2000/svg" xmlns:xlink="http://www.w3.org/1999/xlink">
    <!-- Generator: Sketch 62 (91390) - https://sketch.com -->
    <title>Group 3</title>
    <desc>Created with Sketch.</desc>
    <defs>
        <polygon id="path-1" points="0.0004 -2.84217094e-14 426.123 -2.84217094e-14 426.123 144.325 0.0004 144.325"></polygon>
    </defs>
    <g id="Page-1" stroke="none" stroke-width="1" fill="none" fill-rule="evenodd">
        <g id="Group-3">
            <mask id="mask-2" fill="white">
                <use xlink:href="#path-1"></use>
            </mask>
            <g id="Clip-2"></g>
            <path d="M398.7304,28.825 C386.8004,13.635 366.1364,13.274 358.5444,22.054 C350.9534,30.835 338.8904,8.012 328.0454,8.012 C317.2004,8.012 308.4044,5.214 301.8974,4.882 C295.3904,4.548 294.3214,16.88 273.6454,5.854 C252.1554,-5.606 239.7644,1.823 231.0874,10.557 C222.4124,19.291 192.9984,23.755 177.7554,23.755 C176.3164,23.755 174.6264,23.517 172.7494,23.102 L153.4754,27.522 L124.5104,34.685 C124.5104,34.685 102.1044,53.632 82.9764,57.328 C77.9074,58.307 68.7634,55.399 58.0614,66.659 L0.0004,137.764 L425.7624,144.325 C425.9964,139.476 426.1234,134.599 426.1234,129.693 C426.1234,97.59 421.0384,66.679 411.6664,37.696 C405.7094,34.284 400.2914,30.812 398.7304,28.825" id="Fill-1" fill="#5DB393" mask="url(#mask-2)"></path>
        </g>
    </g>
</svg>