<?xml version="1.0" encoding="UTF-8"?>
<svg width="598px" height="296px" viewBox="0 0 598 296" version="1.1" xmlns="http://www.w3.org/2000/svg" xmlns:xlink="http://www.w3.org/1999/xlink">
    <!-- Generator: Sketch 62 (91390) - https://sketch.com -->
    <title>Group 3</title>
    <desc>Created with Sketch.</desc>
    <defs>
        <polygon id="path-1" points="0.0004 -5.68434189e-14 597.4954 -5.68434189e-14 597.4954 295.1669 0.0004 295.1669"></polygon>
    </defs>
    <g id="Page-1" stroke="none" stroke-width="1" fill="none" fill-rule="evenodd">
        <g id="Group-3">
            <mask id="mask-2" fill="white">
                <use xlink:href="#path-1"></use>
            </mask>
            <g id="Clip-2"></g>
            <path d="M575.5064,86.2689 C575.4554,86.4299 575.3994,86.6019 575.3484,86.7629 L574.9294,86.5209 C575.1184,86.4379 575.3214,86.3519 575.5064,86.2689 M0.0004,71.5199 C0.0004,98.7809 3.6724,125.1809 10.5124,150.2739 C14.2914,156.5819 18.6854,163.3479 23.8514,170.7039 L307.1734,295.1669 L554.6084,225.8169 C581.8254,180.7809 597.4954,127.9819 597.4954,71.5199 C597.4954,67.3179 597.3864,63.1419 597.2144,58.9819 C596.9294,58.4789 596.6494,57.9719 596.3424,57.4819 C595.8554,56.7039 595.0144,55.4189 594.5884,55.5299 C593.7724,55.7429 592.9234,56.6549 592.4704,57.5169 C591.3554,59.6429 590.9174,61.8499 593.4914,63.6249 L592.6714,64.3009 C591.7654,63.5189 590.8824,62.6999 589.9454,61.9649 C589.0314,61.2489 588.0624,60.6199 587.1174,59.9519 C586.6514,60.9569 586.1504,61.9449 585.7284,62.9719 C585.3254,63.9509 586.0664,65.8379 584.0154,65.4519 C583.8994,66.3329 583.7784,67.2359 583.6354,68.3119 C583.5974,68.2759 583.5724,68.2289 583.5324,68.1939 C583.2064,69.0289 582.8464,69.8439 582.5054,70.6659 C581.8654,70.6429 581.2274,70.0509 580.7294,68.5149 C580.2124,66.9199 579.7874,65.2879 579.2924,63.5719 C575.8814,65.3379 576.0364,70.3289 571.9514,70.9519 L569.7074,71.9559 C569.3794,73.8609 570.6344,76.4309 568.0324,77.5039 L568.0324,85.9779 C567.1834,85.3179 566.3244,84.6509 565.3914,83.9249 C565.6124,83.1549 565.8604,82.2159 566.1574,81.3069 C566.2214,81.1109 566.4684,81.0259 566.6244,80.8769 C568.1044,79.4639 568.1564,78.0319 567.0044,76.2949 C566.3114,75.2499 565.8554,73.9309 565.2924,72.7359 C565.3324,72.7079 565.3724,72.6809 565.4124,72.6529 C564.4434,71.1749 563.4764,69.6959 562.3514,67.9789 C559.1754,72.4789 557.4114,78.0269 556.2044,83.9949 C555.9494,83.9899 555.6954,83.9859 555.4414,83.9819 C554.0824,79.9669 552.7244,75.9519 551.2694,71.6539 C550.7044,72.3399 550.4374,72.5129 550.3604,72.7809 C549.4864,75.8499 548.6654,78.9459 547.7734,82.0049 C547.5494,82.7719 547.1834,83.5059 546.7734,84.1309 C545.1334,86.6279 545.1364,86.7879 547.8034,88.9909 C546.5284,89.4019 545.4444,90.2419 544.8764,89.8319 C543.8354,89.0809 542.9374,87.7269 542.2984,86.3639 C541.9044,85.5229 542.2064,84.1669 542.0034,83.1059 C541.7734,81.9049 541.3264,80.7749 540.9754,79.6159 C540.1434,80.1549 539.3474,80.8569 538.4704,81.1979 C536.9504,81.7879 536.7384,83.1119 536.7694,84.9389 C536.7814,85.7679 536.3564,86.8279 535.8694,87.3969 C535.2284,88.1479 534.3614,88.6409 533.5314,89.0079 C533.0574,89.2179 532.2994,89.2049 531.9744,88.8319 C531.7214,88.5409 531.8654,87.5159 531.9734,86.8569 C532.0454,86.4189 532.3624,86.0489 532.6584,85.4769 C530.4444,84.2059 530.1834,82.1829 531.3874,79.6189 C529.5594,78.7759 529.1574,77.5329 529.5984,75.0299 C529.8304,73.7059 528.4404,71.8699 527.7094,70.3229 C527.6794,70.2589 526.6284,70.6829 526.5394,71.0739 C525.9644,73.5709 525.2094,76.1119 525.1584,78.6609 C525.1274,80.2009 525.0054,81.1319 524.1444,82.0899 C523.2884,83.0429 522.8464,84.0419 523.9334,85.5059 C524.3484,86.0649 524.1734,87.6779 523.9334,88.6689 C523.8144,89.1589 522.7574,89.7829 522.4334,89.5609 C521.2604,88.7589 520.6804,89.5379 519.9514,90.5259 C518.7774,92.1229 517.1434,92.1919 516.4434,90.5979 C515.5504,88.5619 514.0354,86.7449 514.6944,83.9419 C514.7954,83.5129 514.6824,82.8549 514.4814,82.4759 C514.1314,81.8179 513.6354,81.2929 513.1994,80.7129 C512.9194,81.2949 512.6264,81.8679 512.3624,82.4629 C512.2374,82.7459 512.2254,83.2659 512.0654,83.3459 C509.4294,84.6669 510.1744,87.6909 509.9764,90.2779 C509.8814,91.5119 509.8464,93.4109 509.2884,93.8119 C506.8914,95.5379 505.6914,99.6889 502.4304,99.6259 C501.2614,96.1299 500.0754,92.5809 498.6454,88.3039 C498.2804,89.7839 498.2284,90.5949 497.9094,91.1339 C497.5554,91.7339 496.9604,92.0859 496.4704,92.5469 C496.1644,91.8949 495.8344,91.2609 495.5614,90.5859 C495.1604,89.5959 494.8024,88.5739 494.4194,87.5709 C494.3404,87.3619 494.2314,87.1729 494.1344,86.9719 C494.5994,86.6209 495.0124,86.3089 495.5364,85.9119 C493.7604,83.7529 493.0884,81.5139 493.7954,78.4329 C493.9984,77.5469 492.7354,76.0749 492.1454,74.8709 C491.5784,75.5299 490.9024,76.0869 490.4824,76.8809 C490.1324,77.5399 490.1214,78.4979 489.8944,79.2889 C489.4834,80.7189 489.1044,82.1809 488.5584,83.5209 C488.0794,84.6969 487.3024,85.3049 486.3174,84.2879 C485.2574,83.1929 484.6704,83.9629 484.2014,85.1949 C483.9114,85.9569 483.6454,86.7349 483.3684,87.5059 C482.8514,88.9509 482.2434,89.2199 481.6554,87.6219 C481.0684,86.0249 480.3944,86.0669 479.6184,87.3039 C478.6154,88.9069 477.8674,88.2819 477.2004,86.8729 C476.9954,86.4399 476.8634,85.9469 476.6704,85.5029 C475.6204,83.0959 474.3944,83.0399 473.3914,85.4879 C472.3454,88.0419 471.4504,90.7069 470.3884,93.5989 C469.3504,92.6279 467.8564,91.8649 467.1404,90.4269 C465.7964,87.7279 465.6144,87.4269 463.1834,89.0249 C463.1214,90.2069 463.0594,91.3879 463.0244,92.0469 C461.5954,93.1449 460.4444,94.0299 459.1314,95.0389 C459.0534,94.9429 458.5954,94.3779 457.9854,93.6289 C457.6404,96.6469 456.0964,96.1769 454.4344,96.1479 C454.5914,95.1359 454.9454,94.2459 454.7904,93.5539 C454.4744,92.1369 454.0934,89.9259 453.3684,89.6329 C450.6664,88.5399 449.6914,89.5409 448.8814,93.2629 C448.6674,94.2449 448.3874,95.2429 448.3604,96.2439 C448.3004,98.4099 447.2034,99.2529 446.0734,100.0319 C444.4264,98.9099 445.8394,94.7599 443.3084,95.1859 C441.5474,95.4809 439.0354,95.3169 438.9034,99.3989 C438.6914,97.9599 438.7504,96.7399 438.7924,95.5179 C438.8374,94.2449 438.9954,92.9429 438.8474,91.7059 C438.7694,91.0399 438.1544,90.4839 437.7824,89.8789 C437.5374,90.4989 437.0624,91.1389 437.0924,91.7339 C437.1774,93.4179 435.3764,93.8469 435.5764,95.5209 C435.7394,96.8899 435.2604,98.9759 433.9034,99.5329 C432.3784,100.1589 431.6764,96.2089 432.4694,94.4279 C433.3964,92.3439 432.4464,90.8119 432.2594,89.0809 C432.1914,88.4469 431.4664,87.9369 431.0414,87.3709 C430.6664,87.8859 430.1824,88.3279 429.9464,88.9369 C429.7274,89.5069 429.6914,90.2589 429.7104,90.9229 C429.8644,96.0799 429.5274,94.1219 426.9074,97.7269 C426.5794,96.2389 425.0734,101.0369 424.7794,99.7009 C424.6334,98.6599 424.6104,97.5219 424.2054,96.7189 C423.1794,94.6759 421.9884,92.7739 420.8474,90.8339 C420.4094,90.0899 419.9254,89.3939 419.4624,88.6759 C418.9914,89.2969 418.4054,89.8269 418.0754,90.5579 C417.5104,91.8119 417.0474,92.4459 416.0924,91.1259 L416.0924,78.8119 C413.6334,79.0589 413.5884,82.0139 412.7474,84.0519 C412.5404,84.5529 412.6454,85.2719 412.4504,85.7899 C412.0954,86.7419 411.6234,87.6189 411.1994,88.5269 C410.7174,87.8059 410.1564,87.1509 409.7714,86.3499 C409.2204,85.2049 408.6804,84.9139 407.9624,86.0259 C407.0964,87.3689 406.2154,88.6999 405.4234,90.1169 C405.2684,90.3949 405.4174,91.0759 405.5474,91.5069 C405.7294,92.1069 405.7494,92.6349 405.7034,93.1269 C405.5924,93.2659 405.4874,93.3709 405.3704,93.5399 C403.1344,89.9219 405.7114,84.9589 403.0634,81.4959 C401.7384,83.4369 402.0054,85.6829 401.7054,87.7809 C401.4364,89.6599 400.9334,92.4539 399.9524,92.9889 C399.7834,93.0809 399.6554,93.2029 399.4964,93.3019 C398.4864,92.9889 397.3884,93.8059 396.7764,95.5319 C396.0674,97.5309 395.2744,99.4789 394.4664,101.4129 C392.7034,98.4929 391.6554,97.6839 389.8634,98.3729 C389.5364,98.4989 389.2264,98.5749 388.9234,98.6179 C388.3614,96.8889 387.8174,95.1479 387.2214,93.4399 C386.9144,92.5619 386.5164,91.5339 385.9334,91.0709 C385.3544,90.6119 384.8084,90.6349 384.3964,90.9749 C384.5254,89.9559 384.3954,89.0349 383.4554,88.6069 C381.9874,87.9379 381.6524,89.7979 381.2894,91.1229 C381.0954,91.8319 380.9584,92.5679 380.8304,93.3079 C380.4724,92.6149 380.1394,91.8539 379.6314,90.8929 C379.5934,88.7879 379.4514,86.6919 378.1294,84.9439 C377.5114,87.1569 377.1964,89.3759 377.0174,91.6129 C376.8954,93.1229 376.6344,94.5549 376.2734,95.9529 C374.9124,95.2569 373.7104,94.6979 373.3404,92.6409 C373.2854,92.3329 372.8184,91.8729 372.6524,91.9429 C372.3424,92.0729 372.0444,92.4829 371.8604,92.8729 C371.3744,93.9049 370.8834,95.0019 370.4024,96.0609 C370.3624,95.9769 370.3224,95.8859 370.2834,95.8019 C370.1004,95.4119 369.8024,95.0009 369.4914,94.8719 C369.3254,94.8019 368.8594,95.2619 368.8044,95.5689 C368.6284,96.5459 368.2334,97.1329 367.7554,97.6069 C366.1274,94.8399 365.3864,91.9039 365.1284,88.6849 C364.9474,86.4469 364.6334,84.2279 364.0154,82.0159 C361.8344,84.8999 362.8584,83.9139 362.2784,87.1769 C362.0494,87.1659 361.8194,87.1549 361.5904,87.1439 C361.3524,85.8869 361.1874,84.5939 360.8554,83.3809 C360.4924,82.0569 360.1564,80.1969 358.6894,80.8649 C357.3424,81.4779 357.6164,83.0869 358.0124,84.5769 C358.6814,87.1009 357.9124,88.9149 356.0594,90.1159 C354.7934,90.9359 353.6684,91.1649 352.2804,90.6309 C350.4724,89.9359 349.4274,90.7519 347.6364,93.7339 C347.2584,92.8399 346.8494,92.1109 346.6234,91.2939 C345.8204,88.3909 344.4944,86.5009 342.1924,85.2469 C341.2104,84.7129 340.7084,81.9179 340.4394,80.0399 C340.1384,77.9419 340.4044,75.6959 339.0814,73.7539 C336.4334,77.2179 339.0104,82.1799 336.7754,85.7979 C335.8224,84.4269 335.1494,84.0149 333.8944,85.3969 C331.7924,87.7139 330.2234,82.2069 328.8984,79.0859 C328.0774,77.1559 327.2164,76.9309 326.0924,78.5299 C325.1064,79.9319 324.6434,69.6519 324.0684,68.3779 C323.7384,67.6459 323.1524,67.1169 322.6824,66.4959 C322.2194,67.2129 321.7354,67.9109 321.2974,68.6539 C320.1554,70.5939 318.9654,72.4959 317.9394,74.5379 C317.5334,75.3419 317.5114,76.4789 317.3644,77.5209 C317.0704,78.8579 316.7774,80.1929 316.4494,81.6819 C313.8284,78.0769 312.2794,73.8999 312.4344,68.7429 C312.4534,68.0789 312.4174,67.3279 312.1974,66.7569 C311.9624,66.1479 311.4784,65.7059 311.1034,65.1899 C310.6784,65.7569 309.9534,66.2669 309.8854,66.8999 C309.6974,68.6319 308.7484,70.1639 309.6754,72.2479 C310.4674,74.0299 306.9354,73.8219 305.4094,73.1959 C304.0524,72.6389 304.3044,71.1329 304.4674,69.7649 C304.6674,68.0899 304.9674,66.4249 305.0524,64.7419 C305.0814,64.1459 304.6074,63.5059 304.3614,62.8859 C303.9894,63.4919 303.3754,64.0459 303.2964,64.7129 C303.1504,65.9499 303.3074,67.2509 303.3514,68.5249 C303.3944,69.7469 303.4534,70.9679 303.2404,72.4059 C303.1084,68.3239 300.5974,68.4889 298.8364,68.1919 C296.3044,67.7669 297.7184,71.9169 296.0694,73.0399 C294.9414,72.2599 293.8444,71.4169 293.7844,69.2509 C293.7574,68.2499 293.4774,67.2509 293.2634,66.2699 C292.4534,62.5479 291.4784,61.5469 288.7764,62.6399 C288.0514,62.9329 287.6704,65.1439 287.3534,66.5609 C287.1984,67.2529 287.5534,68.1429 287.7104,69.1559 C286.0484,69.1839 284.5044,69.6549 284.1584,66.6349 C283.5494,67.3859 283.0904,67.9499 283.0124,68.0459 C281.6994,67.0359 280.5484,66.1519 279.1204,65.0549 C279.0854,64.3939 279.0224,63.2129 278.9624,62.0319 C276.5294,60.4339 276.3484,60.7349 275.0044,63.4349 C274.2894,64.8719 272.7944,65.6359 271.7564,66.6049 C270.6944,63.7139 269.7994,61.0499 268.7534,58.4949 C267.7504,56.0469 266.5244,56.1029 265.4744,58.5089 C265.2804,58.9539 265.1494,59.4469 264.9444,59.8799 C264.2764,61.2889 263.5284,61.9139 262.5254,60.3109 C261.7504,59.0739 261.0754,59.0319 260.4884,60.6279 C259.9014,62.2269 259.2934,61.9579 258.7764,60.5129 C258.5004,59.7419 258.2334,58.9639 257.9434,58.2019 C257.4734,56.9699 256.8874,56.2009 255.8274,57.2949 C254.8414,58.3119 254.0644,57.7039 253.5864,56.5279 C253.0404,55.1869 252.6614,53.7259 252.2504,52.2959 C252.0234,51.5049 252.0124,50.5479 251.6624,49.8879 C251.2424,49.0939 250.5664,48.5369 250.0004,47.8779 C249.4094,49.0809 248.1454,50.5539 248.3494,51.4399 C249.0554,54.5209 248.3834,56.7589 246.6084,58.9189 C247.1324,59.3159 247.5454,59.6269 248.0104,59.9789 C247.9134,60.1799 247.8044,60.3689 247.7244,60.5779 C247.6444,60.7879 247.5644,60.9979 247.4854,61.2089 C245.7514,60.1179 243.8324,58.5649 243.6584,57.3419 C243.6084,56.9899 244.4314,56.4209 244.8524,55.9519 L244.8524,51.3309 C243.2484,50.6089 243.1874,49.3309 243.9564,47.5549 C244.5444,46.1959 243.7724,43.5959 242.6734,43.4479 C242.1494,43.3779 241.2194,44.1879 241.0354,44.8639 C240.3944,47.2299 239.9964,49.7119 239.5664,51.8519 C240.3704,53.3439 238.1174,51.4939 239.0274,53.1839 C236.1154,52.6469 239.2564,51.6489 236.8234,50.1299 C236.4704,51.6059 236.1684,53.0089 235.7984,54.3819 C235.2844,56.2979 234.5604,56.5899 233.9244,55.9999 C233.7194,54.1409 233.5874,52.9439 233.4564,51.7479 C231.9934,52.0789 232.5224,50.4559 232.2354,49.6139 C231.9344,48.7299 231.5774,47.8799 231.2444,47.0159 C230.5704,47.5899 229.8794,48.1319 229.2274,48.7479 C228.5594,49.3799 227.9304,50.0839 227.2844,50.7569 C227.0894,50.5629 226.8944,50.3699 226.6984,50.1759 C228.5344,48.6479 228.2224,46.7499 227.4274,44.9209 C227.1044,44.1799 226.4994,43.3949 225.9174,43.2119 C225.6134,43.1169 225.0144,44.2219 224.6664,44.8919 C224.0134,46.1479 223.4464,47.4829 222.8584,48.7539 C222.9274,49.3999 223.0974,50.1949 223.0374,50.9569 C223.0214,51.1549 222.2254,51.4759 221.8884,51.3309 C221.5554,51.1889 221.1844,50.5679 221.1194,50.0889 C220.9344,48.7359 221.0994,47.2449 220.7374,46.0049 C220.4524,45.0289 219.5894,44.3449 218.9834,43.5319 C218.8094,43.8259 218.6414,44.1249 218.4654,44.4159 C217.4064,45.2299 215.4714,46.0179 218.8554,38.6699 C219.5924,37.0679 217.0234,35.6869 217.1874,34.3179 C217.3864,32.6439 216.8634,33.4379 216.9474,31.7549 C216.9774,31.1589 216.5024,30.5189 216.2574,29.8989 C215.8854,30.5049 215.2724,31.0599 215.1924,31.7259 C215.0454,32.9629 215.2034,34.2649 215.2474,35.5389 C215.2904,36.7599 211.7564,37.3309 211.5434,38.7699 C211.4104,34.6869 211.5814,36.5639 210.0984,29.0339 C209.4574,25.7779 209.0534,33.4779 207.4044,34.5999 C206.2754,33.8199 205.1784,32.9769 205.1194,30.8109 C205.0914,29.8099 204.8124,28.8119 204.5984,27.8309 C203.7884,24.1089 204.5884,27.9409 201.8854,29.0339 C201.1614,29.3269 201.0614,32.9409 200.7444,34.3579 C200.5904,35.0499 195.2644,38.1589 195.4214,39.1709 C193.7584,39.1999 195.8394,31.2149 195.4934,28.1959 C194.8844,28.9459 194.4254,29.5099 194.3474,29.6059 C193.0344,28.5969 191.8834,27.7129 190.4554,26.6149 C190.4204,25.9549 190.3574,24.7739 190.2964,23.5929 C187.8644,21.9939 186.5744,27.8489 185.2314,30.5479 C184.5154,31.9859 184.5584,22.3329 183.5204,23.3029 C182.4584,20.4109 179.2824,22.7589 180.0874,20.0549 C181.3524,15.8079 177.8584,17.6639 176.8084,20.0699 C176.6144,20.5139 176.4834,21.0069 176.2784,21.4409 C175.6114,22.8499 175.7404,28.7419 174.7364,27.1389 C173.9624,25.9029 172.4104,20.5919 171.8234,22.1889 C171.2354,23.7879 170.6284,23.5189 170.1104,22.0739 C169.8344,21.3019 169.5674,20.5239 169.2774,19.7629 C168.8084,18.5309 168.2224,17.7609 167.1624,18.8549 C166.1764,19.8729 165.3994,19.2649 164.9204,18.0889 C164.3754,16.7479 163.9954,15.2859 163.5854,13.8569 C163.3584,13.0649 163.3474,12.1079 162.9974,11.4479 C162.5774,10.6549 161.9004,10.0979 161.3354,9.4379 C160.7434,10.6419 159.4804,12.1139 159.6844,13.0009 C160.3904,16.0819 159.7184,18.3199 157.9424,20.4789 C158.4664,20.8759 158.8794,21.1879 159.3444,21.5399 C159.2474,21.7409 159.1384,21.9299 159.0594,22.1389 C158.6764,23.1419 158.3194,24.1629 157.9174,25.1539 C157.6444,25.8289 157.3144,26.4629 157.0094,27.1149 C156.5194,26.6539 155.9234,26.3009 155.5694,25.7009 C155.2514,25.1629 152.9714,24.7829 152.6074,23.3029 C152.4934,30.5479 149.0984,26.2999 147.9304,29.7959 C144.6704,29.8589 146.5884,30.1049 144.1914,28.3799 C143.6324,27.9779 143.5974,26.0799 143.5034,24.8459 C143.3044,22.2579 144.0494,19.2339 141.4144,17.9139 C141.2544,17.8329 141.2404,17.3119 141.1154,17.0309 C140.8524,16.4359 140.5594,15.8629 140.2784,15.2799 C139.8444,15.8599 139.3484,16.3849 138.9984,17.0429 C138.7974,17.4229 138.6834,18.0809 138.7844,18.5089 C139.4434,21.3129 137.9284,23.1289 137.0354,25.1649 C136.3364,26.7589 134.7024,26.6899 133.5274,25.0939 C132.7984,24.1049 132.2184,23.3269 131.0454,24.1289 C130.7224,24.3499 129.6654,23.7269 129.5464,23.2359 C129.3054,22.2449 129.1304,20.6329 129.5464,20.0739 C130.6324,18.6099 130.1894,17.6099 129.3344,16.6579 C128.4734,15.6999 128.3514,14.7679 128.3204,13.2289 C128.2694,10.6789 127.5154,8.1389 126.9404,5.6409 C126.8504,5.2499 125.8004,4.8269 125.7694,4.8919 C125.0394,6.4369 123.6484,8.2739 123.8814,9.5969 C124.3214,12.0999 123.9204,13.3439 122.0914,14.1859 C123.2964,16.7499 123.0344,18.7729 120.8194,20.0439 C121.1164,20.6169 121.4344,20.9859 121.5054,21.4249 C121.6134,22.0829 121.7584,23.1089 121.5054,23.3989 C121.1794,23.7719 120.4224,23.7849 119.9474,23.5759 C119.1174,23.2079 118.2514,22.7159 117.6094,21.9649 C117.1224,21.3949 116.6964,20.3349 116.7104,19.5069 C116.7404,17.6799 116.5284,16.3549 115.0094,15.7649 C114.1324,15.4249 115.1114,8.7669 114.2794,8.2269 C113.9274,9.3879 110.5124,12.4019 110.2824,13.6029 C110.2064,13.9989 109.4644,14.6569 108.7384,15.4149 C108.0114,12.1689 107.3204,8.9089 106.5934,5.6639 C106.5204,5.3319 106.2204,5.0999 105.6054,4.2209 C104.4574,7.3099 103.3604,10.2599 102.2764,13.1759 C102.0384,11.2299 101.7854,9.4199 101.5044,8.2269 C101.1694,6.8109 100.1384,11.1189 99.5454,9.8079 C99.1074,11.1329 99.7094,-1.2741 99.5454,0.1069 C99.3594,1.6849 98.2964,4.8689 97.3404,7.8769 C96.3644,5.2309 95.1544,2.7589 93.5944,0.5479 C92.5094,2.2049 91.5704,3.6379 90.6354,5.0649 C89.9894,3.1769 89.3094,1.0899 88.6664,0.1069 C89.7074,2.9579 88.1734,6.7549 86.4114,10.5479 C86.3014,9.3979 86.2234,8.2699 86.0864,7.1119 C85.9234,5.7299 85.2524,4.4519 84.8134,3.1269 C84.2204,4.4389 81.7364,5.3669 81.4024,6.7839 C81.1464,7.8709 80.7644,9.0199 80.3634,10.1829 C79.8854,7.7729 79.3994,5.3309 78.8944,2.7869 C78.2524,3.3419 77.9664,3.4549 77.8584,3.7029 C76.6174,6.5439 75.4254,9.4219 74.1674,12.2489 C73.8524,12.9579 74.6084,4.3559 74.1274,4.8849 C73.5974,5.4659 72.8844,8.4679 72.3394,11.2819 C72.1244,11.0849 71.8234,10.9599 71.2704,11.0309 C70.1924,11.1689 69.7044,9.9739 70.6234,9.1469 C71.8864,8.0109 71.3814,6.5859 71.1284,5.5389 C70.6684,3.6409 69.7924,1.9179 69.0844,0.1069 C67.1844,1.7719 66.3014,4.3579 66.9534,6.4439 C66.1544,6.5169 65.4024,6.5849 64.5114,6.6649 C64.4394,6.1249 64.4934,5.5279 64.2924,5.2369 C63.9414,4.7269 63.2984,3.9559 63.0204,4.1019 C62.4854,4.3819 62.0874,5.1929 61.7094,5.8589 C61.6264,6.0069 61.9924,6.5169 61.9384,6.7829 C61.3804,9.5099 60.8394,12.2499 60.1494,14.9199 C59.9464,15.7029 59.2814,16.2759 58.4954,17.4379 C57.5064,14.0059 56.5864,10.8169 55.4524,6.8859 C54.3214,8.9509 53.5564,10.3479 52.6404,12.0199 C52.3484,11.3449 52.1124,10.7059 51.8114,10.1279 C51.4444,9.4259 51.0234,8.7739 50.6254,8.1009 C50.0194,8.9149 49.1564,9.5979 48.8704,10.5739 C48.5084,11.8129 48.6734,13.3049 48.4884,14.6579 C48.4234,15.1369 48.0524,15.7569 47.7194,15.8999 C47.3824,16.0439 46.5874,15.7239 46.5704,15.5259 C46.5094,14.7629 46.6804,13.9689 46.7504,13.3229 C46.1614,12.0529 45.5944,10.7179 44.9414,9.4599 C44.5944,8.7899 43.9944,7.6859 43.6904,7.7809 C43.1094,7.9639 42.5034,8.7479 42.1804,9.4899 C41.3854,11.3189 41.0734,13.2169 42.9094,14.7449 C42.7144,14.9379 42.5194,15.1319 42.3244,15.3259 C41.6774,14.6529 41.0484,13.9489 40.3804,13.3159 C39.7294,12.7009 39.0374,12.1589 38.3634,11.5839 C38.0314,12.4499 37.6734,13.2989 37.3734,14.1829 C37.0864,15.0249 37.6144,16.6479 36.1524,16.3159 C36.0204,17.5129 35.8884,18.7089 35.6844,20.5699 C35.0474,21.1579 34.3244,20.8669 33.8094,18.9509 C33.4404,17.5779 33.1374,16.1749 32.7844,14.6989 C31.8414,15.2879 31.9294,15.4679 32.2174,15.5009 C32.1084,15.5199 31.9944,15.5399 31.8504,15.5659 C32.7604,13.8759 29.2374,17.9129 30.0414,16.4209 C29.6104,14.2809 29.2144,11.7989 28.5724,9.4329 C28.3884,8.7569 27.4594,7.9469 26.9344,8.0179 C25.8364,8.1649 25.0644,10.7649 25.6524,12.1239 C26.4214,13.8999 26.3604,15.1779 24.7564,15.8999 L24.7564,20.5209 C25.1764,20.9899 26.0004,21.5589 25.9504,21.9109 C25.7164,23.5489 26.6104,25.7599 24.7564,26.6829 L24.7564,36.8529 C24.6784,36.8889 24.6104,36.9229 24.5314,36.9599 C24.3424,36.5609 24.0394,36.0879 23.6324,35.4689 C23.2224,34.8439 22.8564,34.1099 22.6324,33.3439 C21.7394,30.2849 20.9184,27.1889 20.0454,24.1199 C19.9684,23.8519 19.7014,23.6789 19.1364,22.9929 C17.6824,27.2899 16.3234,31.3049 14.9644,35.3199 C14.7104,35.3249 14.4564,35.3289 14.2014,35.3329 C12.9944,29.3649 11.2304,23.8169 8.0544,19.3179 C6.9294,21.0349 5.9614,22.5139 4.9934,23.9919 C5.0324,24.0189 5.0734,24.0459 5.1134,24.0739 C4.5504,25.2689 4.0944,26.5889 3.4014,27.6339 C3.3084,27.7729 3.2364,27.9079 3.1594,28.0439 C3.0274,28.9519 2.9024,29.8609 2.7774,30.7709 C2.9614,31.2619 3.2834,31.7409 3.7814,32.2159 C3.9374,32.3649 4.1844,32.4499 4.2474,32.6449 C4.5454,33.5549 4.7934,34.4929 5.0134,35.2629 C3.9234,36.1109 2.8954,36.9109 1.9204,37.6689 C0.6664,48.7819 0.0004,60.0719 0.0004,71.5199" id="Fill-1" fill="#005B3F" mask="url(#mask-2)"></path>
        </g>
    </g>
</svg>